<svg width="101" height="40" viewBox="0 0 101 40" fill="none" xmlns="http://www.w3.org/2000/svg">
<rect width="100.19" height="38.7097" rx="19.3548" fill="white"/>
<path d="M20.3172 26.5449H22.4549V19.2767H28.1148V26.5449H30.2525V12.0695H28.1148V17.424H22.4549V12.0695H20.3172V26.5449ZM34.8111 16.9761H32.8566V22.2491C32.8566 25.2826 34.241 26.7892 37.0914 26.7892C38.6387 26.7892 39.7585 26.3413 40.5728 25.2826C41.2854 24.3665 41.3261 23.4299 41.3261 22.2491V16.9761H39.3716V22.2084C39.3716 23.9593 38.5573 24.8755 37.071 24.8755C35.6051 24.8755 34.8111 23.9593 34.8111 22.2084V16.9761ZM48.6803 18.6455C50.4312 18.6455 51.7546 19.9485 51.7546 21.7605C51.7546 23.5928 50.5126 24.8551 48.6803 24.8551C46.8887 24.8551 45.6264 23.6132 45.6264 21.8623C45.6264 19.9689 46.9294 18.6455 48.6803 18.6455ZM45.5857 18.0347V12.0287H43.6516V20.1114C43.6516 22.1066 43.8552 23.5928 44.5067 24.7126C45.2599 25.9952 46.7869 26.7892 48.6803 26.7892C50.024 26.7892 51.3067 26.2802 52.2635 25.3234C53.2204 24.3665 53.7294 23.0838 53.7294 21.7401C53.7294 20.3964 53.2204 19.1341 52.2635 18.1772C51.327 17.2407 50.2073 16.7928 48.8839 16.7928C47.6216 16.7928 46.5426 17.1796 45.5857 18.0347ZM55.5866 26.5449H57.5207V22.1066C59.9231 22.1473 61.1447 23.4707 61.1447 26.097C61.1447 26.2395 61.1243 26.382 61.1243 26.5449H63.0788C63.0788 26.4228 63.0788 26.321 63.0788 26.1988C63.0788 23.3078 62.0608 21.5569 59.9842 20.885L63.0788 16.9761H60.7171L57.5207 21.0683V12.0287H55.5866V26.5449ZM66.7616 16.9761H64.8071V22.2491C64.8071 25.2826 66.1915 26.7892 69.0418 26.7892C70.5891 26.7892 71.7089 26.3413 72.5233 25.2826C73.2358 24.3665 73.2766 23.4299 73.2766 22.2491V16.9761H71.3221V22.2084C71.3221 23.9593 70.5077 24.8755 69.0215 24.8755C67.5556 24.8755 66.7616 23.9593 66.7616 22.2084V16.9761ZM75.0932 18.6659H76.0705V22.2491C76.0705 24.9772 77.5567 26.5042 80.2645 26.5449V24.5904C78.595 24.4275 77.9842 23.5521 77.9842 21.679V18.6659H80.1423V16.9761H77.9842V14.7162H76.0705V16.9761H75.0932V18.6659Z" fill="#ED2590"/>
<path d="M20.3172 26.5449H19.7064V27.1557H20.3172V26.5449ZM22.4549 26.5449V27.1557H23.0657V26.5449H22.4549ZM22.4549 19.2767V18.6659H21.8441V19.2767H22.4549ZM28.1148 19.2767H28.7256V18.6659H28.1148V19.2767ZM28.1148 26.5449H27.504V27.1557H28.1148V26.5449ZM30.2525 26.5449V27.1557H30.8633V26.5449H30.2525ZM30.2525 12.0695H30.8633V11.4587H30.2525V12.0695ZM28.1148 12.0695V11.4587H27.504V12.0695H28.1148ZM28.1148 17.424V18.0347H28.7256V17.424H28.1148ZM22.4549 17.424H21.8441V18.0347H22.4549V17.424ZM22.4549 12.0695H23.0657V11.4587H22.4549V12.0695ZM20.3172 12.0695V11.4587H19.7064V12.0695H20.3172ZM20.3172 27.1557H22.4549V25.9341H20.3172V27.1557ZM23.0657 26.5449V19.2767H21.8441V26.5449H23.0657ZM22.4549 19.8874H28.1148V18.6659H22.4549V19.8874ZM27.504 19.2767V26.5449H28.7256V19.2767H27.504ZM28.1148 27.1557H30.2525V25.9341H28.1148V27.1557ZM30.8633 26.5449V12.0695H29.6417V26.5449H30.8633ZM30.2525 11.4587H28.1148V12.6802H30.2525V11.4587ZM27.504 12.0695V17.424H28.7256V12.0695H27.504ZM28.1148 16.8132H22.4549V18.0347H28.1148V16.8132ZM23.0657 17.424V12.0695H21.8441V17.424H23.0657ZM22.4549 11.4587H20.3172V12.6802H22.4549V11.4587ZM19.7064 12.0695V26.5449H20.928V12.0695H19.7064ZM34.8111 16.9761H35.4219V16.3653H34.8111V16.9761ZM32.8566 16.9761V16.3653H32.2458V16.9761H32.8566ZM40.5728 25.2826L40.0907 24.9077L40.0897 24.9089L40.0887 24.9102L40.5728 25.2826ZM41.3261 16.9761H41.9369V16.3653H41.3261V16.9761ZM39.3716 16.9761V16.3653H38.7609V16.9761H39.3716ZM34.8111 16.3653H32.8566V17.5868H34.8111V16.3653ZM32.2458 16.9761V22.2491H33.4674V16.9761H32.2458ZM32.2458 22.2491C32.2458 23.8467 32.6092 25.1595 33.4577 26.0725C34.3143 26.9943 35.563 27.4 37.0914 27.4V26.1784C35.7694 26.1784 34.9007 25.8309 34.3525 25.241C33.7962 24.6423 33.4674 23.685 33.4674 22.2491H32.2458ZM37.0914 27.4C38.7747 27.4 40.0978 26.9019 41.057 25.655L40.0887 24.9102C39.4191 25.7807 38.5025 26.1784 37.0914 26.1784V27.4ZM41.0549 25.6576C41.9074 24.5616 41.9369 23.4293 41.9369 22.2491H40.7153C40.7153 23.4306 40.6632 24.1714 40.0907 24.9077L41.0549 25.6576ZM41.9369 22.2491V16.9761H40.7153V22.2491H41.9369ZM41.3261 16.3653H39.3716V17.5868H41.3261V16.3653ZM38.7609 16.9761V22.2084H39.9824V16.9761H38.7609ZM38.7609 22.2084C38.7609 22.9995 38.5758 23.5008 38.3176 23.7978C38.0719 24.0805 37.6843 24.2647 37.071 24.2647V25.4862C37.9438 25.4862 38.7065 25.2123 39.2395 24.5992C39.7601 24.0004 39.9824 23.1682 39.9824 22.2084H38.7609ZM37.071 24.2647C36.4708 24.2647 36.095 24.0825 35.8562 23.8023C35.6033 23.5056 35.4219 23.0028 35.4219 22.2084H34.2003C34.2003 23.1648 34.4159 23.9956 34.9265 24.5947C35.4512 25.2103 36.2053 25.4862 37.071 25.4862V24.2647ZM35.4219 22.2084V16.9761H34.2003V22.2084H35.4219ZM45.5857 18.0347H44.9749V19.3997L45.9927 18.4902L45.5857 18.0347ZM45.5857 12.0287H46.1965V11.418H45.5857V12.0287ZM43.6516 12.0287V11.418H43.0408V12.0287H43.6516ZM44.5067 24.7126L43.9787 25.0197L43.9802 25.0219L44.5067 24.7126ZM52.2635 25.3234L51.8317 24.8915L52.2635 25.3234ZM52.2635 18.1773L51.8317 18.6091L52.2635 18.1773ZM48.6803 19.2563C50.0912 19.2563 51.1438 20.2832 51.1438 21.7605H52.3653C52.3653 19.6138 50.7712 18.0347 48.6803 18.0347V19.2563ZM51.1438 21.7605C51.1438 22.5357 50.8836 23.1483 50.4707 23.5651C50.0584 23.9812 49.4523 24.2443 48.6803 24.2443V25.4659C49.7408 25.4659 50.6719 25.0978 51.3386 24.4248C52.0048 23.7523 52.3653 22.8176 52.3653 21.7605H51.1438ZM48.6803 24.2443C47.9288 24.2443 47.324 23.986 46.9093 23.5793C46.4956 23.1733 46.2372 22.5862 46.2372 21.8623H45.0156C45.0156 22.8892 45.3886 23.7986 46.0538 24.4512C46.7183 25.1032 47.6404 25.4659 48.6803 25.4659V24.2443ZM46.2372 21.8623C46.2372 20.2822 47.2902 19.2563 48.6803 19.2563V18.0347C46.5686 18.0347 45.0156 19.6555 45.0156 21.8623H46.2372ZM46.1965 18.0347V12.0287H44.9749V18.0347H46.1965ZM45.5857 11.418H43.6516V12.6395H45.5857V11.418ZM43.0408 12.0287V20.1114H44.2623V12.0287H43.0408ZM43.0408 20.1114C43.0408 22.1246 43.2409 23.7515 43.9787 25.0197L45.0346 24.4054C44.4696 23.4341 44.2623 22.0886 44.2623 20.1114H43.0408ZM43.9802 25.0219C44.8672 26.5325 46.6228 27.4 48.6803 27.4V26.1784C46.9512 26.1784 45.6529 25.458 45.0333 24.4033L43.9802 25.0219ZM48.6803 27.4C50.1798 27.4 51.6196 26.8311 52.6956 25.7552L51.8317 24.8915C50.9937 25.7294 49.8685 26.1784 48.6803 26.1784V27.4ZM52.6956 25.7552C53.7714 24.6794 54.3402 23.2395 54.3402 21.7401H53.1186C53.1186 22.9282 52.6697 24.0535 51.8317 24.8915L52.6956 25.7552ZM54.3402 21.7401C54.3402 20.2382 53.7695 18.8194 52.6956 17.7454L51.8317 18.6091C52.6715 19.4489 53.1186 20.5547 53.1186 21.7401H54.3402ZM52.6956 17.7454C51.6408 16.6906 50.364 16.182 48.8839 16.182V17.4036C50.0507 17.4036 51.0135 17.7909 51.8317 18.6091L52.6956 17.7454ZM48.8839 16.182C47.4789 16.182 46.2531 16.6193 45.1787 17.5793L45.9927 18.4902C46.8323 17.74 47.7643 17.4036 48.8839 17.4036V16.182ZM55.5866 26.5449H54.9758V27.1557H55.5866V26.5449ZM57.5207 26.5449V27.1557H58.1315V26.5449H57.5207ZM57.5207 22.1066L57.5311 21.4959L56.9099 21.4854V22.1066H57.5207ZM61.1243 26.5449H60.5135V27.1557H61.1243V26.5449ZM63.0788 26.5449V27.1557H63.6896V26.5449H63.0788ZM59.9842 20.885L59.5053 20.5059L58.9595 21.1955L59.7963 21.4661L59.9842 20.885ZM63.0788 16.9761L63.5576 17.3552L64.3415 16.3653H63.0788V16.9761ZM60.7171 16.9761V16.3653H60.4193L60.2358 16.6001L60.7171 16.9761ZM57.5207 21.0683H56.9099V22.8424L58.002 21.4442L57.5207 21.0683ZM57.5207 12.0287H58.1315V11.418H57.5207V12.0287ZM55.5866 12.0287V11.418H54.9758V12.0287H55.5866ZM55.5866 27.1557H57.5207V25.9341H55.5866V27.1557ZM58.1315 26.5449V22.1066H56.9099V26.5449H58.1315ZM57.5103 22.7173C58.6034 22.7358 59.325 23.0421 59.7822 23.5437C60.2474 24.0538 60.5339 24.8684 60.5339 26.097H61.7554C61.7554 24.6993 61.4311 23.539 60.685 22.7206C59.931 21.8939 58.8404 21.5181 57.5311 21.4959L57.5103 22.7173ZM60.5339 26.097C60.5339 26.1432 60.5306 26.1923 60.5251 26.2713C60.5202 26.3441 60.5135 26.4398 60.5135 26.5449H61.7351C61.7351 26.4871 61.7388 26.4301 61.7438 26.3553C61.7485 26.2868 61.7554 26.1934 61.7554 26.097H60.5339ZM61.1243 27.1557H63.0788V25.9341H61.1243V27.1557ZM63.6896 26.5449C63.6896 26.5447 63.6896 26.5444 63.6896 26.5442C63.6896 26.544 63.6896 26.5437 63.6896 26.5435C63.6896 26.5432 63.6896 26.543 63.6896 26.5428C63.6896 26.5425 63.6896 26.5423 63.6896 26.5421C63.6896 26.5418 63.6896 26.5416 63.6896 26.5414C63.6896 26.5411 63.6896 26.5409 63.6896 26.5406C63.6896 26.5404 63.6896 26.5402 63.6896 26.5399C63.6896 26.5397 63.6896 26.5394 63.6896 26.5392C63.6896 26.539 63.6896 26.5387 63.6896 26.5385C63.6896 26.5383 63.6896 26.538 63.6896 26.5378C63.6896 26.5375 63.6896 26.5373 63.6896 26.5371C63.6896 26.5368 63.6896 26.5366 63.6896 26.5364C63.6896 26.5361 63.6896 26.5359 63.6896 26.5357C63.6896 26.5354 63.6896 26.5352 63.6896 26.5349C63.6896 26.5347 63.6896 26.5345 63.6896 26.5342C63.6896 26.534 63.6896 26.5338 63.6896 26.5335C63.6896 26.5333 63.6896 26.533 63.6896 26.5328C63.6896 26.5326 63.6896 26.5323 63.6896 26.5321C63.6896 26.5319 63.6896 26.5316 63.6896 26.5314C63.6896 26.5312 63.6896 26.5309 63.6896 26.5307C63.6896 26.5305 63.6896 26.5302 63.6896 26.53C63.6896 26.5297 63.6896 26.5295 63.6896 26.5293C63.6896 26.529 63.6896 26.5288 63.6896 26.5286C63.6896 26.5283 63.6896 26.5281 63.6896 26.5279C63.6896 26.5276 63.6896 26.5274 63.6896 26.5272C63.6896 26.5269 63.6896 26.5267 63.6896 26.5265C63.6896 26.5262 63.6896 26.526 63.6896 26.5258C63.6896 26.5255 63.6896 26.5253 63.6896 26.525C63.6896 26.5248 63.6896 26.5246 63.6896 26.5244C63.6896 26.5241 63.6896 26.5239 63.6896 26.5236C63.6896 26.5234 63.6896 26.5232 63.6896 26.5229C63.6896 26.5227 63.6896 26.5225 63.6896 26.5222C63.6896 26.522 63.6896 26.5218 63.6896 26.5215C63.6896 26.5213 63.6896 26.5211 63.6896 26.5208C63.6896 26.5206 63.6896 26.5204 63.6896 26.5201C63.6896 26.5199 63.6896 26.5197 63.6896 26.5194C63.6896 26.5192 63.6896 26.519 63.6896 26.5187C63.6896 26.5185 63.6896 26.5183 63.6896 26.518C63.6896 26.5178 63.6896 26.5176 63.6896 26.5173C63.6896 26.5171 63.6896 26.5169 63.6896 26.5166C63.6896 26.5164 63.6896 26.5162 63.6896 26.5159C63.6896 26.5157 63.6896 26.5155 63.6896 26.5153C63.6896 26.515 63.6896 26.5148 63.6896 26.5145C63.6896 26.5143 63.6896 26.5141 63.6896 26.5138C63.6896 26.5136 63.6896 26.5134 63.6896 26.5132C63.6896 26.5129 63.6896 26.5127 63.6896 26.5125C63.6896 26.5122 63.6896 26.512 63.6896 26.5118C63.6896 26.5115 63.6896 26.5113 63.6896 26.5111C63.6896 26.5108 63.6896 26.5106 63.6896 26.5104C63.6896 26.5101 63.6896 26.5099 63.6896 26.5097C63.6896 26.5094 63.6896 26.5092 63.6896 26.509C63.6896 26.5087 63.6896 26.5085 63.6896 26.5083C63.6896 26.508 63.6896 26.5078 63.6896 26.5076C63.6896 26.5074 63.6896 26.5071 63.6896 26.5069C63.6896 26.5067 63.6896 26.5064 63.6896 26.5062C63.6896 26.506 63.6896 26.5057 63.6896 26.5055C63.6896 26.5053 63.6896 26.5051 63.6896 26.5048C63.6896 26.5046 63.6896 26.5044 63.6896 26.5041C63.6896 26.5039 63.6896 26.5037 63.6896 26.5034C63.6896 26.5032 63.6896 26.503 63.6896 26.5028C63.6896 26.5025 63.6896 26.5023 63.6896 26.5021C63.6896 26.5018 63.6896 26.5016 63.6896 26.5014C63.6896 26.5011 63.6896 26.5009 63.6896 26.5007C63.6896 26.5005 63.6896 26.5002 63.6896 26.5C63.6896 26.4998 63.6896 26.4995 63.6896 26.4993C63.6896 26.4991 63.6896 26.4988 63.6896 26.4986C63.6896 26.4984 63.6896 26.4981 63.6896 26.4979C63.6896 26.4977 63.6896 26.4975 63.6896 26.4972C63.6896 26.497 63.6896 26.4968 63.6896 26.4965C63.6896 26.4963 63.6896 26.4961 63.6896 26.4959C63.6896 26.4956 63.6896 26.4954 63.6896 26.4952C63.6896 26.4949 63.6896 26.4947 63.6896 26.4945C63.6896 26.4942 63.6896 26.494 63.6896 26.4938C63.6896 26.4936 63.6896 26.4933 63.6896 26.4931C63.6896 26.4929 63.6896 26.4927 63.6896 26.4924C63.6896 26.4922 63.6896 26.492 63.6896 26.4917C63.6896 26.4915 63.6896 26.4913 63.6896 26.491C63.6896 26.4908 63.6896 26.4906 63.6896 26.4904C63.6896 26.4901 63.6896 26.4899 63.6896 26.4897C63.6896 26.4895 63.6896 26.4892 63.6896 26.489C63.6896 26.4888 63.6896 26.4885 63.6896 26.4883C63.6896 26.4881 63.6896 26.4878 63.6896 26.4876C63.6896 26.4874 63.6896 26.4872 63.6896 26.4869C63.6896 26.4867 63.6896 26.4865 63.6896 26.4863C63.6896 26.486 63.6896 26.4858 63.6896 26.4856C63.6896 26.4853 63.6896 26.4851 63.6896 26.4849C63.6896 26.4847 63.6896 26.4844 63.6896 26.4842C63.6896 26.484 63.6896 26.4838 63.6896 26.4835C63.6896 26.4833 63.6896 26.4831 63.6896 26.4828C63.6896 26.4826 63.6896 26.4824 63.6896 26.4822C63.6896 26.4819 63.6896 26.4817 63.6896 26.4815C63.6896 26.4813 63.6896 26.481 63.6896 26.4808C63.6896 26.4806 63.6896 26.4804 63.6896 26.4801C63.6896 26.4799 63.6896 26.4797 63.6896 26.4794C63.6896 26.4792 63.6896 26.479 63.6896 26.4788C63.6896 26.4785 63.6896 26.4783 63.6896 26.4781C63.6896 26.4779 63.6896 26.4776 63.6896 26.4774C63.6896 26.4772 63.6896 26.477 63.6896 26.4767C63.6896 26.4765 63.6896 26.4763 63.6896 26.476C63.6896 26.4758 63.6896 26.4756 63.6896 26.4754C63.6896 26.4751 63.6896 26.4749 63.6896 26.4747C63.6896 26.4745 63.6896 26.4742 63.6896 26.474C63.6896 26.4738 63.6896 26.4736 63.6896 26.4733C63.6896 26.4731 63.6896 26.4729 63.6896 26.4727C63.6896 26.4724 63.6896 26.4722 63.6896 26.472C63.6896 26.4717 63.6896 26.4715 63.6896 26.4713C63.6896 26.4711 63.6896 26.4708 63.6896 26.4706C63.6896 26.4704 63.6896 26.4702 63.6896 26.47C63.6896 26.4697 63.6896 26.4695 63.6896 26.4693C63.6896 26.4691 63.6896 26.4688 63.6896 26.4686C63.6896 26.4684 63.6896 26.4681 63.6896 26.4679C63.6896 26.4677 63.6896 26.4675 63.6896 26.4672C63.6896 26.467 63.6896 26.4668 63.6896 26.4666C63.6896 26.4663 63.6896 26.4661 63.6896 26.4659C63.6896 26.4657 63.6896 26.4655 63.6896 26.4652C63.6896 26.465 63.6896 26.4648 63.6896 26.4646C63.6896 26.4643 63.6896 26.4641 63.6896 26.4639C63.6896 26.4636 63.6896 26.4634 63.6896 26.4632C63.6896 26.463 63.6896 26.4627 63.6896 26.4625C63.6896 26.4623 63.6896 26.4621 63.6896 26.4618C63.6896 26.4616 63.6896 26.4614 63.6896 26.4612C63.6896 26.461 63.6896 26.4607 63.6896 26.4605C63.6896 26.4603 63.6896 26.4601 63.6896 26.4598C63.6896 26.4596 63.6896 26.4594 63.6896 26.4592C63.6896 26.4589 63.6896 26.4587 63.6896 26.4585C63.6896 26.4583 63.6896 26.458 63.6896 26.4578C63.6896 26.4576 63.6896 26.4574 63.6896 26.4571C63.6896 26.4569 63.6896 26.4567 63.6896 26.4565C63.6896 26.4563 63.6896 26.456 63.6896 26.4558C63.6896 26.4556 63.6896 26.4554 63.6896 26.4551C63.6896 26.4549 63.6896 26.4547 63.6896 26.4545C63.6896 26.4542 63.6896 26.454 63.6896 26.4538C63.6896 26.4536 63.6896 26.4534 63.6896 26.4531C63.6896 26.4529 63.6896 26.4527 63.6896 26.4525C63.6896 26.4522 63.6896 26.452 63.6896 26.4518C63.6896 26.4516 63.6896 26.4513 63.6896 26.4511C63.6896 26.4509 63.6896 26.4507 63.6896 26.4504C63.6896 26.4502 63.6896 26.45 63.6896 26.4498C63.6896 26.4496 63.6896 26.4493 63.6896 26.4491C63.6896 26.4489 63.6896 26.4487 63.6896 26.4485C63.6896 26.4482 63.6896 26.448 63.6896 26.4478C63.6896 26.4476 63.6896 26.4473 63.6896 26.4471C63.6896 26.4469 63.6896 26.4467 63.6896 26.4464C63.6896 26.4462 63.6896 26.446 63.6896 26.4458C63.6896 26.4455 63.6896 26.4453 63.6896 26.4451C63.6896 26.4449 63.6896 26.4447 63.6896 26.4444C63.6896 26.4442 63.6896 26.444 63.6896 26.4438C63.6896 26.4435 63.6896 26.4433 63.6896 26.4431C63.6896 26.4429 63.6896 26.4427 63.6896 26.4424C63.6896 26.4422 63.6896 26.442 63.6896 26.4418C63.6896 26.4416 63.6896 26.4413 63.6896 26.4411C63.6896 26.4409 63.6896 26.4407 63.6896 26.4404C63.6896 26.4402 63.6896 26.44 63.6896 26.4398C63.6896 26.4396 63.6896 26.4393 63.6896 26.4391C63.6896 26.4389 63.6896 26.4387 63.6896 26.4384C63.6896 26.4382 63.6896 26.438 63.6896 26.4378C63.6896 26.4376 63.6896 26.4373 63.6896 26.4371C63.6896 26.4369 63.6896 26.4367 63.6896 26.4364C63.6896 26.4362 63.6896 26.436 63.6896 26.4358C63.6896 26.4356 63.6896 26.4353 63.6896 26.4351C63.6896 26.4349 63.6896 26.4347 63.6896 26.4344C63.6896 26.4342 63.6896 26.434 63.6896 26.4338C63.6896 26.4336 63.6896 26.4333 63.6896 26.4331C63.6896 26.4329 63.6896 26.4327 63.6896 26.4325C63.6896 26.4322 63.6896 26.432 63.6896 26.4318C63.6896 26.4316 63.6896 26.4314 63.6896 26.4311C63.6896 26.4309 63.6896 26.4307 63.6896 26.4305C63.6896 26.4303 63.6896 26.43 63.6896 26.4298C63.6896 26.4296 63.6896 26.4294 63.6896 26.4292C63.6896 26.4289 63.6896 26.4287 63.6896 26.4285C63.6896 26.4283 63.6896 26.428 63.6896 26.4278C63.6896 26.4276 63.6896 26.4274 63.6896 26.4272C63.6896 26.4269 63.6896 26.4267 63.6896 26.4265C63.6896 26.4263 63.6896 26.4261 63.6896 26.4258C63.6896 26.4256 63.6896 26.4254 63.6896 26.4252C63.6896 26.4249 63.6896 26.4247 63.6896 26.4245C63.6896 26.4243 63.6896 26.4241 63.6896 26.4238C63.6896 26.4236 63.6896 26.4234 63.6896 26.4232C63.6896 26.423 63.6896 26.4227 63.6896 26.4225C63.6896 26.4223 63.6896 26.4221 63.6896 26.4219C63.6896 26.4216 63.6896 26.4214 63.6896 26.4212C63.6896 26.421 63.6896 26.4208 63.6896 26.4205C63.6896 26.4203 63.6896 26.4201 63.6896 26.4199C63.6896 26.4197 63.6896 26.4194 63.6896 26.4192C63.6896 26.419 63.6896 26.4188 63.6896 26.4185C63.6896 26.4183 63.6896 26.4181 63.6896 26.4179C63.6896 26.4177 63.6896 26.4174 63.6896 26.4172C63.6896 26.417 63.6896 26.4168 63.6896 26.4166C63.6896 26.4163 63.6896 26.4161 63.6896 26.4159C63.6896 26.4157 63.6896 26.4155 63.6896 26.4152C63.6896 26.415 63.6896 26.4148 63.6896 26.4146C63.6896 26.4144 63.6896 26.4141 63.6896 26.4139C63.6896 26.4137 63.6896 26.4135 63.6896 26.4133C63.6896 26.413 63.6896 26.4128 63.6896 26.4126C63.6896 26.4124 63.6896 26.4122 63.6896 26.4119C63.6896 26.4117 63.6896 26.4115 63.6896 26.4113C63.6896 26.4111 63.6896 26.4108 63.6896 26.4106C63.6896 26.4104 63.6896 26.4102 63.6896 26.41C63.6896 26.4097 63.6896 26.4095 63.6896 26.4093C63.6896 26.4091 63.6896 26.4089 63.6896 26.4087C63.6896 26.4084 63.6896 26.4082 63.6896 26.408C63.6896 26.4078 63.6896 26.4076 63.6896 26.4073C63.6896 26.4071 63.6896 26.4069 63.6896 26.4067C63.6896 26.4065 63.6896 26.4062 63.6896 26.406C63.6896 26.4058 63.6896 26.4056 63.6896 26.4054C63.6896 26.4051 63.6896 26.4049 63.6896 26.4047C63.6896 26.4045 63.6896 26.4043 63.6896 26.404C63.6896 26.4038 63.6896 26.4036 63.6896 26.4034C63.6896 26.4032 63.6896 26.4029 63.6896 26.4027C63.6896 26.4025 63.6896 26.4023 63.6896 26.4021C63.6896 26.4019 63.6896 26.4016 63.6896 26.4014C63.6896 26.4012 63.6896 26.401 63.6896 26.4008C63.6896 26.4005 63.6896 26.4003 63.6896 26.4001C63.6896 26.3999 63.6896 26.3997 63.6896 26.3994C63.6896 26.3992 63.6896 26.399 63.6896 26.3988C63.6896 26.3986 63.6896 26.3983 63.6896 26.3981C63.6896 26.3979 63.6896 26.3977 63.6896 26.3975C63.6896 26.3973 63.6896 26.397 63.6896 26.3968C63.6896 26.3966 63.6896 26.3964 63.6896 26.3962C63.6896 26.3959 63.6896 26.3957 63.6896 26.3955C63.6896 26.3953 63.6896 26.3951 63.6896 26.3948C63.6896 26.3946 63.6896 26.3944 63.6896 26.3942C63.6896 26.394 63.6896 26.3937 63.6896 26.3935C63.6896 26.3933 63.6896 26.3931 63.6896 26.3929C63.6896 26.3926 63.6896 26.3924 63.6896 26.3922C63.6896 26.392 63.6896 26.3918 63.6896 26.3915C63.6896 26.3913 63.6896 26.3911 63.6896 26.3909C63.6896 26.3907 63.6896 26.3904 63.6896 26.3902C63.6896 26.39 63.6896 26.3898 63.6896 26.3896C63.6896 26.3894 63.6896 26.3891 63.6896 26.3889C63.6896 26.3887 63.6896 26.3885 63.6896 26.3883C63.6896 26.388 63.6896 26.3878 63.6896 26.3876C63.6896 26.3874 63.6896 26.3872 63.6896 26.3869C63.6896 26.3867 63.6896 26.3865 63.6896 26.3863C63.6896 26.3861 63.6896 26.3859 63.6896 26.3856C63.6896 26.3854 63.6896 26.3852 63.6896 26.385C63.6896 26.3848 63.6896 26.3845 63.6896 26.3843C63.6896 26.3841 63.6896 26.3839 63.6896 26.3837C63.6896 26.3834 63.6896 26.3832 63.6896 26.383C63.6896 26.3828 63.6896 26.3826 63.6896 26.3824C63.6896 26.3821 63.6896 26.3819 63.6896 26.3817C63.6896 26.3815 63.6896 26.3813 63.6896 26.381C63.6896 26.3808 63.6896 26.3806 63.6896 26.3804C63.6896 26.3802 63.6896 26.3799 63.6896 26.3797C63.6896 26.3795 63.6896 26.3793 63.6896 26.3791C63.6896 26.3789 63.6896 26.3786 63.6896 26.3784C63.6896 26.3782 63.6896 26.378 63.6896 26.3778C63.6896 26.3775 63.6896 26.3773 63.6896 26.3771C63.6896 26.3769 63.6896 26.3767 63.6896 26.3765C63.6896 26.3762 63.6896 26.376 63.6896 26.3758C63.6896 26.3756 63.6896 26.3754 63.6896 26.3751C63.6896 26.3749 63.6896 26.3747 63.6896 26.3745C63.6896 26.3743 63.6896 26.374 63.6896 26.3738C63.6896 26.3736 63.6896 26.3734 63.6896 26.3732C63.6896 26.373 63.6896 26.3727 63.6896 26.3725C63.6896 26.3723 63.6896 26.3721 63.6896 26.3719C63.6896 26.3716 63.6896 26.3714 63.6896 26.3712C63.6896 26.371 63.6896 26.3708 63.6896 26.3706C63.6896 26.3703 63.6896 26.3701 63.6896 26.3699C63.6896 26.3697 63.6896 26.3695 63.6896 26.3692C63.6896 26.369 63.6896 26.3688 63.6896 26.3686C63.6896 26.3684 63.6896 26.3681 63.6896 26.3679C63.6896 26.3677 63.6896 26.3675 63.6896 26.3673C63.6896 26.3671 63.6896 26.3668 63.6896 26.3666C63.6896 26.3664 63.6896 26.3662 63.6896 26.366C63.6896 26.3657 63.6896 26.3655 63.6896 26.3653C63.6896 26.3651 63.6896 26.3649 63.6896 26.3646C63.6896 26.3644 63.6896 26.3642 63.6896 26.364C63.6896 26.3638 63.6896 26.3636 63.6896 26.3633C63.6896 26.3631 63.6896 26.3629 63.6896 26.3627C63.6896 26.3625 63.6896 26.3622 63.6896 26.362C63.6896 26.3618 63.6896 26.3616 63.6896 26.3614C63.6896 26.3612 63.6896 26.3609 63.6896 26.3607C63.6896 26.3605 63.6896 26.3603 63.6896 26.3601C63.6896 26.3598 63.6896 26.3596 63.6896 26.3594C63.6896 26.3592 63.6896 26.359 63.6896 26.3587C63.6896 26.3585 63.6896 26.3583 63.6896 26.3581C63.6896 26.3579 63.6896 26.3577 63.6896 26.3574C63.6896 26.3572 63.6896 26.357 63.6896 26.3568C63.6896 26.3566 63.6896 26.3563 63.6896 26.3561C63.6896 26.3559 63.6896 26.3557 63.6896 26.3555C63.6896 26.3552 63.6896 26.355 63.6896 26.3548C63.6896 26.3546 63.6896 26.3544 63.6896 26.3541C63.6896 26.3539 63.6896 26.3537 63.6896 26.3535C63.6896 26.3533 63.6896 26.3531 63.6896 26.3528C63.6896 26.3526 63.6896 26.3524 63.6896 26.3522C63.6896 26.352 63.6896 26.3517 63.6896 26.3515C63.6896 26.3513 63.6896 26.3511 63.6896 26.3509C63.6896 26.3506 63.6896 26.3504 63.6896 26.3502C63.6896 26.35 63.6896 26.3497 63.6896 26.3495C63.6896 26.3493 63.6896 26.3491 63.6896 26.3489C63.6896 26.3487 63.6896 26.3484 63.6896 26.3482C63.6896 26.348 63.6896 26.3478 63.6896 26.3476C63.6896 26.3474 63.6896 26.3471 63.6896 26.3469C63.6896 26.3467 63.6896 26.3465 63.6896 26.3463C63.6896 26.346 63.6896 26.3458 63.6896 26.3456C63.6896 26.3454 63.6896 26.3451 63.6896 26.3449C63.6896 26.3447 63.6896 26.3445 63.6896 26.3443C63.6896 26.3441 63.6896 26.3438 63.6896 26.3436C63.6896 26.3434 63.6896 26.3432 63.6896 26.343C63.6896 26.3427 63.6896 26.3425 63.6896 26.3423C63.6896 26.3421 63.6896 26.3419 63.6896 26.3416C63.6896 26.3414 63.6896 26.3412 63.6896 26.341C63.6896 26.3408 63.6896 26.3406 63.6896 26.3403C63.6896 26.3401 63.6896 26.3399 63.6896 26.3397C63.6896 26.3394 63.6896 26.3392 63.6896 26.339C63.6896 26.3388 63.6896 26.3386 63.6896 26.3384C63.6896 26.3381 63.6896 26.3379 63.6896 26.3377C63.6896 26.3375 63.6896 26.3373 63.6896 26.337C63.6896 26.3368 63.6896 26.3366 63.6896 26.3364C63.6896 26.3362 63.6896 26.3359 63.6896 26.3357C63.6896 26.3355 63.6896 26.3353 63.6896 26.3351C63.6896 26.3348 63.6896 26.3346 63.6896 26.3344C63.6896 26.3342 63.6896 26.334 63.6896 26.3337C63.6896 26.3335 63.6896 26.3333 63.6896 26.3331C63.6896 26.3329 63.6896 26.3327 63.6896 26.3324C63.6896 26.3322 63.6896 26.332 63.6896 26.3318C63.6896 26.3315 63.6896 26.3313 63.6896 26.3311C63.6896 26.3309 63.6896 26.3307 63.6896 26.3305C63.6896 26.3302 63.6896 26.33 63.6896 26.3298C63.6896 26.3296 63.6896 26.3294 63.6896 26.3291C63.6896 26.3289 63.6896 26.3287 63.6896 26.3285C63.6896 26.3283 63.6896 26.328 63.6896 26.3278C63.6896 26.3276 63.6896 26.3274 63.6896 26.3272C63.6896 26.3269 63.6896 26.3267 63.6896 26.3265C63.6896 26.3263 63.6896 26.3261 63.6896 26.3258C63.6896 26.3256 63.6896 26.3254 63.6896 26.3252C63.6896 26.325 63.6896 26.3247 63.6896 26.3245C63.6896 26.3243 63.6896 26.3241 63.6896 26.3239C63.6896 26.3236 63.6896 26.3234 63.6896 26.3232C63.6896 26.323 63.6896 26.3228 63.6896 26.3225C63.6896 26.3223 63.6896 26.3221 63.6896 26.3219C63.6896 26.3216 63.6896 26.3214 63.6896 26.3212C63.6896 26.321 63.6896 26.3208 63.6896 26.3205C63.6896 26.3203 63.6896 26.3201 63.6896 26.3199C63.6896 26.3197 63.6896 26.3194 63.6896 26.3192C63.6896 26.319 63.6896 26.3188 63.6896 26.3186C63.6896 26.3183 63.6896 26.3181 63.6896 26.3179C63.6896 26.3177 63.6896 26.3175 63.6896 26.3172C63.6896 26.317 63.6896 26.3168 63.6896 26.3166C63.6896 26.3163 63.6896 26.3161 63.6896 26.3159C63.6896 26.3157 63.6896 26.3155 63.6896 26.3152C63.6896 26.315 63.6896 26.3148 63.6896 26.3146C63.6896 26.3144 63.6896 26.3141 63.6896 26.3139C63.6896 26.3137 63.6896 26.3135 63.6896 26.3132C63.6896 26.313 63.6896 26.3128 63.6896 26.3126C63.6896 26.3124 63.6896 26.3121 63.6896 26.3119C63.6896 26.3117 63.6896 26.3115 63.6896 26.3113C63.6896 26.311 63.6896 26.3108 63.6896 26.3106C63.6896 26.3104 63.6896 26.3102 63.6896 26.3099C63.6896 26.3097 63.6896 26.3095 63.6896 26.3093C63.6896 26.3091 63.6896 26.3088 63.6896 26.3086C63.6896 26.3084 63.6896 26.3082 63.6896 26.3079C63.6896 26.3077 63.6896 26.3075 63.6896 26.3073C63.6896 26.3071 63.6896 26.3068 63.6896 26.3066C63.6896 26.3064 63.6896 26.3062 63.6896 26.3059C63.6896 26.3057 63.6896 26.3055 63.6896 26.3053C63.6896 26.3051 63.6896 26.3048 63.6896 26.3046C63.6896 26.3044 63.6896 26.3042 63.6896 26.3039C63.6896 26.3037 63.6896 26.3035 63.6896 26.3033C63.6896 26.3031 63.6896 26.3028 63.6896 26.3026C63.6896 26.3024 63.6896 26.3022 63.6896 26.3019C63.6896 26.3017 63.6896 26.3015 63.6896 26.3013C63.6896 26.3011 63.6896 26.3008 63.6896 26.3006C63.6896 26.3004 63.6896 26.3002 63.6896 26.3C63.6896 26.2997 63.6896 26.2995 63.6896 26.2993C63.6896 26.2991 63.6896 26.2988 63.6896 26.2986C63.6896 26.2984 63.6896 26.2982 63.6896 26.298C63.6896 26.2977 63.6896 26.2975 63.6896 26.2973C63.6896 26.2971 63.6896 26.2968 63.6896 26.2966C63.6896 26.2964 63.6896 26.2962 63.6896 26.2959C63.6896 26.2957 63.6896 26.2955 63.6896 26.2953C63.6896 26.2951 63.6896 26.2948 63.6896 26.2946C63.6896 26.2944 63.6896 26.2942 63.6896 26.2939C63.6896 26.2937 63.6896 26.2935 63.6896 26.2933C63.6896 26.293 63.6896 26.2928 63.6896 26.2926C63.6896 26.2924 63.6896 26.2922 63.6896 26.2919C63.6896 26.2917 63.6896 26.2915 63.6896 26.2913C63.6896 26.291 63.6896 26.2908 63.6896 26.2906C63.6896 26.2904 63.6896 26.2901 63.6896 26.2899C63.6896 26.2897 63.6896 26.2895 63.6896 26.2893C63.6896 26.289 63.6896 26.2888 63.6896 26.2886C63.6896 26.2884 63.6896 26.2881 63.6896 26.2879C63.6896 26.2877 63.6896 26.2875 63.6896 26.2872C63.6896 26.287 63.6896 26.2868 63.6896 26.2866C63.6896 26.2864 63.6896 26.2861 63.6896 26.2859C63.6896 26.2857 63.6896 26.2855 63.6896 26.2852C63.6896 26.285 63.6896 26.2848 63.6896 26.2846C63.6896 26.2843 63.6896 26.2841 63.6896 26.2839C63.6896 26.2837 63.6896 26.2834 63.6896 26.2832C63.6896 26.283 63.6896 26.2828 63.6896 26.2825C63.6896 26.2823 63.6896 26.2821 63.6896 26.2819C63.6896 26.2816 63.6896 26.2814 63.6896 26.2812C63.6896 26.281 63.6896 26.2808 63.6896 26.2805C63.6896 26.2803 63.6896 26.2801 63.6896 26.2798C63.6896 26.2796 63.6896 26.2794 63.6896 26.2792C63.6896 26.2789 63.6896 26.2787 63.6896 26.2785C63.6896 26.2783 63.6896 26.278 63.6896 26.2778C63.6896 26.2776 63.6896 26.2774 63.6896 26.2772C63.6896 26.2769 63.6896 26.2767 63.6896 26.2765C63.6896 26.2763 63.6896 26.276 63.6896 26.2758C63.6896 26.2756 63.6896 26.2754 63.6896 26.2751C63.6896 26.2749 63.6896 26.2747 63.6896 26.2744C63.6896 26.2742 63.6896 26.274 63.6896 26.2738C63.6896 26.2735 63.6896 26.2733 63.6896 26.2731C63.6896 26.2729 63.6896 26.2726 63.6896 26.2724C63.6896 26.2722 63.6896 26.272 63.6896 26.2717C63.6896 26.2715 63.6896 26.2713 63.6896 26.2711C63.6896 26.2708 63.6896 26.2706 63.6896 26.2704C63.6896 26.2702 63.6896 26.2699 63.6896 26.2697C63.6896 26.2695 63.6896 26.2693 63.6896 26.269C63.6896 26.2688 63.6896 26.2686 63.6896 26.2684C63.6896 26.2681 63.6896 26.2679 63.6896 26.2677C63.6896 26.2675 63.6896 26.2672 63.6896 26.267C63.6896 26.2668 63.6896 26.2665 63.6896 26.2663C63.6896 26.2661 63.6896 26.2659 63.6896 26.2656C63.6896 26.2654 63.6896 26.2652 63.6896 26.265C63.6896 26.2647 63.6896 26.2645 63.6896 26.2643C63.6896 26.2641 63.6896 26.2638 63.6896 26.2636C63.6896 26.2634 63.6896 26.2631 63.6896 26.2629C63.6896 26.2627 63.6896 26.2625 63.6896 26.2622C63.6896 26.262 63.6896 26.2618 63.6896 26.2616C63.6896 26.2613 63.6896 26.2611 63.6896 26.2609C63.6896 26.2607 63.6896 26.2604 63.6896 26.2602C63.6896 26.26 63.6896 26.2597 63.6896 26.2595C63.6896 26.2593 63.6896 26.2591 63.6896 26.2588C63.6896 26.2586 63.6896 26.2584 63.6896 26.2582C63.6896 26.2579 63.6896 26.2577 63.6896 26.2575C63.6896 26.2572 63.6896 26.257 63.6896 26.2568C63.6896 26.2565 63.6896 26.2563 63.6896 26.2561C63.6896 26.2559 63.6896 26.2557 63.6896 26.2554C63.6896 26.2552 63.6896 26.255 63.6896 26.2547C63.6896 26.2545 63.6896 26.2543 63.6896 26.254C63.6896 26.2538 63.6896 26.2536 63.6896 26.2534C63.6896 26.2531 63.6896 26.2529 63.6896 26.2527C63.6896 26.2525 63.6896 26.2522 63.6896 26.252C63.6896 26.2518 63.6896 26.2515 63.6896 26.2513C63.6896 26.2511 63.6896 26.2508 63.6896 26.2506C63.6896 26.2504 63.6896 26.2502 63.6896 26.2499C63.6896 26.2497 63.6896 26.2495 63.6896 26.2492C63.6896 26.249 63.6896 26.2488 63.6896 26.2486C63.6896 26.2483 63.6896 26.2481 63.6896 26.2479C63.6896 26.2477 63.6896 26.2474 63.6896 26.2472C63.6896 26.247 63.6896 26.2467 63.6896 26.2465C63.6896 26.2463 63.6896 26.246 63.6896 26.2458C63.6896 26.2456 63.6896 26.2453 63.6896 26.2451C63.6896 26.2449 63.6896 26.2447 63.6896 26.2444C63.6896 26.2442 63.6896 26.244 63.6896 26.2437C63.6896 26.2435 63.6896 26.2433 63.6896 26.243C63.6896 26.2428 63.6896 26.2426 63.6896 26.2424C63.6896 26.2421 63.6896 26.2419 63.6896 26.2417C63.6896 26.2414 63.6896 26.2412 63.6896 26.241C63.6896 26.2407 63.6896 26.2405 63.6896 26.2403C63.6896 26.2401 63.6896 26.2398 63.6896 26.2396C63.6896 26.2394 63.6896 26.2391 63.6896 26.2389C63.6896 26.2387 63.6896 26.2384 63.6896 26.2382C63.6896 26.238 63.6896 26.2378 63.6896 26.2375C63.6896 26.2373 63.6896 26.2371 63.6896 26.2368C63.6896 26.2366 63.6896 26.2364 63.6896 26.2361C63.6896 26.2359 63.6896 26.2357 63.6896 26.2354C63.6896 26.2352 63.6896 26.235 63.6896 26.2347C63.6896 26.2345 63.6896 26.2343 63.6896 26.234C63.6896 26.2338 63.6896 26.2336 63.6896 26.2334C63.6896 26.2331 63.6896 26.2329 63.6896 26.2327C63.6896 26.2324 63.6896 26.2322 63.6896 26.232C63.6896 26.2317 63.6896 26.2315 63.6896 26.2313C63.6896 26.231 63.6896 26.2308 63.6896 26.2306C63.6896 26.2303 63.6896 26.2301 63.6896 26.2299C63.6896 26.2297 63.6896 26.2294 63.6896 26.2292C63.6896 26.2289 63.6896 26.2287 63.6896 26.2285C63.6896 26.2282 63.6896 26.228 63.6896 26.2278C63.6896 26.2276 63.6896 26.2273 63.6896 26.2271C63.6896 26.2268 63.6896 26.2266 63.6896 26.2264C63.6896 26.2262 63.6896 26.2259 63.6896 26.2257C63.6896 26.2255 63.6896 26.2252 63.6896 26.225C63.6896 26.2247 63.6896 26.2245 63.6896 26.2243C63.6896 26.2241 63.6896 26.2238 63.6896 26.2236C63.6896 26.2234 63.6896 26.2231 63.6896 26.2229C63.6896 26.2226 63.6896 26.2224 63.6896 26.2222C63.6896 26.222 63.6896 26.2217 63.6896 26.2215C63.6896 26.2212 63.6896 26.221 63.6896 26.2208C63.6896 26.2206 63.6896 26.2203 63.6896 26.2201C63.6896 26.2198 63.6896 26.2196 63.6896 26.2194C63.6896 26.2191 63.6896 26.2189 63.6896 26.2187C63.6896 26.2184 63.6896 26.2182 63.6896 26.218C63.6896 26.2177 63.6896 26.2175 63.6896 26.2173C63.6896 26.217 63.6896 26.2168 63.6896 26.2166C63.6896 26.2163 63.6896 26.2161 63.6896 26.2158C63.6896 26.2156 63.6896 26.2154 63.6896 26.2152C63.6896 26.2149 63.6896 26.2147 63.6896 26.2144C63.6896 26.2142 63.6896 26.214 63.6896 26.2137C63.6896 26.2135 63.6896 26.2133 63.6896 26.213C63.6896 26.2128 63.6896 26.2126 63.6896 26.2123C63.6896 26.2121 63.6896 26.2119 63.6896 26.2116C63.6896 26.2114 63.6896 26.2111 63.6896 26.2109C63.6896 26.2107 63.6896 26.2104 63.6896 26.2102C63.6896 26.21 63.6896 26.2097 63.6896 26.2095C63.6896 26.2093 63.6896 26.209 63.6896 26.2088C63.6896 26.2085 63.6896 26.2083 63.6896 26.2081C63.6896 26.2078 63.6896 26.2076 63.6896 26.2074C63.6896 26.2071 63.6896 26.2069 63.6896 26.2066C63.6896 26.2064 63.6896 26.2062 63.6896 26.2059C63.6896 26.2057 63.6896 26.2055 63.6896 26.2052C63.6896 26.205 63.6896 26.2048 63.6896 26.2045C63.6896 26.2043 63.6896 26.204 63.6896 26.2038C63.6896 26.2036 63.6896 26.2033 63.6896 26.2031C63.6896 26.2029 63.6896 26.2026 63.6896 26.2024C63.6896 26.2021 63.6896 26.2019 63.6896 26.2017C63.6896 26.2014 63.6896 26.2012 63.6896 26.2009C63.6896 26.2007 63.6896 26.2005 63.6896 26.2002C63.6896 26.2 63.6896 26.1998 63.6896 26.1995C63.6896 26.1993 63.6896 26.1991 63.6896 26.1988H62.468C62.468 26.1991 62.468 26.1993 62.468 26.1995C62.468 26.1998 62.468 26.2 62.468 26.2002C62.468 26.2005 62.468 26.2007 62.468 26.2009C62.468 26.2012 62.468 26.2014 62.468 26.2017C62.468 26.2019 62.468 26.2021 62.468 26.2024C62.468 26.2026 62.468 26.2029 62.468 26.2031C62.468 26.2033 62.468 26.2036 62.468 26.2038C62.468 26.204 62.468 26.2043 62.468 26.2045C62.468 26.2048 62.468 26.205 62.468 26.2052C62.468 26.2055 62.468 26.2057 62.468 26.2059C62.468 26.2062 62.468 26.2064 62.468 26.2066C62.468 26.2069 62.468 26.2071 62.468 26.2074C62.468 26.2076 62.468 26.2078 62.468 26.2081C62.468 26.2083 62.468 26.2085 62.468 26.2088C62.468 26.209 62.468 26.2093 62.468 26.2095C62.468 26.2097 62.468 26.21 62.468 26.2102C62.468 26.2104 62.468 26.2107 62.468 26.2109C62.468 26.2111 62.468 26.2114 62.468 26.2116C62.468 26.2119 62.468 26.2121 62.468 26.2123C62.468 26.2126 62.468 26.2128 62.468 26.213C62.468 26.2133 62.468 26.2135 62.468 26.2137C62.468 26.214 62.468 26.2142 62.468 26.2144C62.468 26.2147 62.468 26.2149 62.468 26.2152C62.468 26.2154 62.468 26.2156 62.468 26.2158C62.468 26.2161 62.468 26.2163 62.468 26.2166C62.468 26.2168 62.468 26.217 62.468 26.2173C62.468 26.2175 62.468 26.2177 62.468 26.218C62.468 26.2182 62.468 26.2184 62.468 26.2187C62.468 26.2189 62.468 26.2191 62.468 26.2194C62.468 26.2196 62.468 26.2198 62.468 26.2201C62.468 26.2203 62.468 26.2206 62.468 26.2208C62.468 26.221 62.468 26.2212 62.468 26.2215C62.468 26.2217 62.468 26.222 62.468 26.2222C62.468 26.2224 62.468 26.2226 62.468 26.2229C62.468 26.2231 62.468 26.2234 62.468 26.2236C62.468 26.2238 62.468 26.2241 62.468 26.2243C62.468 26.2245 62.468 26.2247 62.468 26.225C62.468 26.2252 62.468 26.2255 62.468 26.2257C62.468 26.2259 62.468 26.2262 62.468 26.2264C62.468 26.2266 62.468 26.2268 62.468 26.2271C62.468 26.2273 62.468 26.2276 62.468 26.2278C62.468 26.228 62.468 26.2282 62.468 26.2285C62.468 26.2287 62.468 26.2289 62.468 26.2292C62.468 26.2294 62.468 26.2297 62.468 26.2299C62.468 26.2301 62.468 26.2303 62.468 26.2306C62.468 26.2308 62.468 26.231 62.468 26.2313C62.468 26.2315 62.468 26.2317 62.468 26.232C62.468 26.2322 62.468 26.2324 62.468 26.2327C62.468 26.2329 62.468 26.2331 62.468 26.2334C62.468 26.2336 62.468 26.2338 62.468 26.234C62.468 26.2343 62.468 26.2345 62.468 26.2347C62.468 26.235 62.468 26.2352 62.468 26.2354C62.468 26.2357 62.468 26.2359 62.468 26.2361C62.468 26.2364 62.468 26.2366 62.468 26.2368C62.468 26.2371 62.468 26.2373 62.468 26.2375C62.468 26.2378 62.468 26.238 62.468 26.2382C62.468 26.2384 62.468 26.2387 62.468 26.2389C62.468 26.2391 62.468 26.2394 62.468 26.2396C62.468 26.2398 62.468 26.2401 62.468 26.2403C62.468 26.2405 62.468 26.2407 62.468 26.241C62.468 26.2412 62.468 26.2414 62.468 26.2417C62.468 26.2419 62.468 26.2421 62.468 26.2424C62.468 26.2426 62.468 26.2428 62.468 26.243C62.468 26.2433 62.468 26.2435 62.468 26.2437C62.468 26.244 62.468 26.2442 62.468 26.2444C62.468 26.2447 62.468 26.2449 62.468 26.2451C62.468 26.2453 62.468 26.2456 62.468 26.2458C62.468 26.246 62.468 26.2463 62.468 26.2465C62.468 26.2467 62.468 26.247 62.468 26.2472C62.468 26.2474 62.468 26.2477 62.468 26.2479C62.468 26.2481 62.468 26.2483 62.468 26.2486C62.468 26.2488 62.468 26.249 62.468 26.2492C62.468 26.2495 62.468 26.2497 62.468 26.2499C62.468 26.2502 62.468 26.2504 62.468 26.2506C62.468 26.2508 62.468 26.2511 62.468 26.2513C62.468 26.2515 62.468 26.2518 62.468 26.252C62.468 26.2522 62.468 26.2525 62.468 26.2527C62.468 26.2529 62.468 26.2531 62.468 26.2534C62.468 26.2536 62.468 26.2538 62.468 26.254C62.468 26.2543 62.468 26.2545 62.468 26.2547C62.468 26.255 62.468 26.2552 62.468 26.2554C62.468 26.2557 62.468 26.2559 62.468 26.2561C62.468 26.2563 62.468 26.2565 62.468 26.2568C62.468 26.257 62.468 26.2572 62.468 26.2575C62.468 26.2577 62.468 26.2579 62.468 26.2582C62.468 26.2584 62.468 26.2586 62.468 26.2588C62.468 26.2591 62.468 26.2593 62.468 26.2595C62.468 26.2597 62.468 26.26 62.468 26.2602C62.468 26.2604 62.468 26.2607 62.468 26.2609C62.468 26.2611 62.468 26.2613 62.468 26.2616C62.468 26.2618 62.468 26.262 62.468 26.2622C62.468 26.2625 62.468 26.2627 62.468 26.2629C62.468 26.2631 62.468 26.2634 62.468 26.2636C62.468 26.2638 62.468 26.2641 62.468 26.2643C62.468 26.2645 62.468 26.2647 62.468 26.265C62.468 26.2652 62.468 26.2654 62.468 26.2656C62.468 26.2659 62.468 26.2661 62.468 26.2663C62.468 26.2665 62.468 26.2668 62.468 26.267C62.468 26.2672 62.468 26.2675 62.468 26.2677C62.468 26.2679 62.468 26.2681 62.468 26.2684C62.468 26.2686 62.468 26.2688 62.468 26.269C62.468 26.2693 62.468 26.2695 62.468 26.2697C62.468 26.2699 62.468 26.2702 62.468 26.2704C62.468 26.2706 62.468 26.2708 62.468 26.2711C62.468 26.2713 62.468 26.2715 62.468 26.2717C62.468 26.272 62.468 26.2722 62.468 26.2724C62.468 26.2726 62.468 26.2729 62.468 26.2731C62.468 26.2733 62.468 26.2735 62.468 26.2738C62.468 26.274 62.468 26.2742 62.468 26.2744C62.468 26.2747 62.468 26.2749 62.468 26.2751C62.468 26.2754 62.468 26.2756 62.468 26.2758C62.468 26.276 62.468 26.2763 62.468 26.2765C62.468 26.2767 62.468 26.2769 62.468 26.2772C62.468 26.2774 62.468 26.2776 62.468 26.2778C62.468 26.278 62.468 26.2783 62.468 26.2785C62.468 26.2787 62.468 26.2789 62.468 26.2792C62.468 26.2794 62.468 26.2796 62.468 26.2798C62.468 26.2801 62.468 26.2803 62.468 26.2805C62.468 26.2808 62.468 26.281 62.468 26.2812C62.468 26.2814 62.468 26.2816 62.468 26.2819C62.468 26.2821 62.468 26.2823 62.468 26.2825C62.468 26.2828 62.468 26.283 62.468 26.2832C62.468 26.2834 62.468 26.2837 62.468 26.2839C62.468 26.2841 62.468 26.2843 62.468 26.2846C62.468 26.2848 62.468 26.285 62.468 26.2852C62.468 26.2855 62.468 26.2857 62.468 26.2859C62.468 26.2861 62.468 26.2864 62.468 26.2866C62.468 26.2868 62.468 26.287 62.468 26.2872C62.468 26.2875 62.468 26.2877 62.468 26.2879C62.468 26.2881 62.468 26.2884 62.468 26.2886C62.468 26.2888 62.468 26.289 62.468 26.2893C62.468 26.2895 62.468 26.2897 62.468 26.2899C62.468 26.2901 62.468 26.2904 62.468 26.2906C62.468 26.2908 62.468 26.291 62.468 26.2913C62.468 26.2915 62.468 26.2917 62.468 26.2919C62.468 26.2922 62.468 26.2924 62.468 26.2926C62.468 26.2928 62.468 26.293 62.468 26.2933C62.468 26.2935 62.468 26.2937 62.468 26.2939C62.468 26.2942 62.468 26.2944 62.468 26.2946C62.468 26.2948 62.468 26.2951 62.468 26.2953C62.468 26.2955 62.468 26.2957 62.468 26.2959C62.468 26.2962 62.468 26.2964 62.468 26.2966C62.468 26.2968 62.468 26.2971 62.468 26.2973C62.468 26.2975 62.468 26.2977 62.468 26.298C62.468 26.2982 62.468 26.2984 62.468 26.2986C62.468 26.2988 62.468 26.2991 62.468 26.2993C62.468 26.2995 62.468 26.2997 62.468 26.3C62.468 26.3002 62.468 26.3004 62.468 26.3006C62.468 26.3008 62.468 26.3011 62.468 26.3013C62.468 26.3015 62.468 26.3017 62.468 26.3019C62.468 26.3022 62.468 26.3024 62.468 26.3026C62.468 26.3028 62.468 26.3031 62.468 26.3033C62.468 26.3035 62.468 26.3037 62.468 26.3039C62.468 26.3042 62.468 26.3044 62.468 26.3046C62.468 26.3048 62.468 26.3051 62.468 26.3053C62.468 26.3055 62.468 26.3057 62.468 26.3059C62.468 26.3062 62.468 26.3064 62.468 26.3066C62.468 26.3068 62.468 26.3071 62.468 26.3073C62.468 26.3075 62.468 26.3077 62.468 26.3079C62.468 26.3082 62.468 26.3084 62.468 26.3086C62.468 26.3088 62.468 26.3091 62.468 26.3093C62.468 26.3095 62.468 26.3097 62.468 26.3099C62.468 26.3102 62.468 26.3104 62.468 26.3106C62.468 26.3108 62.468 26.311 62.468 26.3113C62.468 26.3115 62.468 26.3117 62.468 26.3119C62.468 26.3121 62.468 26.3124 62.468 26.3126C62.468 26.3128 62.468 26.313 62.468 26.3132C62.468 26.3135 62.468 26.3137 62.468 26.3139C62.468 26.3141 62.468 26.3144 62.468 26.3146C62.468 26.3148 62.468 26.315 62.468 26.3152C62.468 26.3155 62.468 26.3157 62.468 26.3159C62.468 26.3161 62.468 26.3163 62.468 26.3166C62.468 26.3168 62.468 26.317 62.468 26.3172C62.468 26.3175 62.468 26.3177 62.468 26.3179C62.468 26.3181 62.468 26.3183 62.468 26.3186C62.468 26.3188 62.468 26.319 62.468 26.3192C62.468 26.3194 62.468 26.3197 62.468 26.3199C62.468 26.3201 62.468 26.3203 62.468 26.3205C62.468 26.3208 62.468 26.321 62.468 26.3212C62.468 26.3214 62.468 26.3216 62.468 26.3219C62.468 26.3221 62.468 26.3223 62.468 26.3225C62.468 26.3228 62.468 26.323 62.468 26.3232C62.468 26.3234 62.468 26.3236 62.468 26.3239C62.468 26.3241 62.468 26.3243 62.468 26.3245C62.468 26.3247 62.468 26.325 62.468 26.3252C62.468 26.3254 62.468 26.3256 62.468 26.3258C62.468 26.3261 62.468 26.3263 62.468 26.3265C62.468 26.3267 62.468 26.3269 62.468 26.3272C62.468 26.3274 62.468 26.3276 62.468 26.3278C62.468 26.328 62.468 26.3283 62.468 26.3285C62.468 26.3287 62.468 26.3289 62.468 26.3291C62.468 26.3294 62.468 26.3296 62.468 26.3298C62.468 26.33 62.468 26.3302 62.468 26.3305C62.468 26.3307 62.468 26.3309 62.468 26.3311C62.468 26.3313 62.468 26.3315 62.468 26.3318C62.468 26.332 62.468 26.3322 62.468 26.3324C62.468 26.3327 62.468 26.3329 62.468 26.3331C62.468 26.3333 62.468 26.3335 62.468 26.3337C62.468 26.334 62.468 26.3342 62.468 26.3344C62.468 26.3346 62.468 26.3348 62.468 26.3351C62.468 26.3353 62.468 26.3355 62.468 26.3357C62.468 26.3359 62.468 26.3362 62.468 26.3364C62.468 26.3366 62.468 26.3368 62.468 26.337C62.468 26.3373 62.468 26.3375 62.468 26.3377C62.468 26.3379 62.468 26.3381 62.468 26.3384C62.468 26.3386 62.468 26.3388 62.468 26.339C62.468 26.3392 62.468 26.3394 62.468 26.3397C62.468 26.3399 62.468 26.3401 62.468 26.3403C62.468 26.3406 62.468 26.3408 62.468 26.341C62.468 26.3412 62.468 26.3414 62.468 26.3416C62.468 26.3419 62.468 26.3421 62.468 26.3423C62.468 26.3425 62.468 26.3427 62.468 26.343C62.468 26.3432 62.468 26.3434 62.468 26.3436C62.468 26.3438 62.468 26.3441 62.468 26.3443C62.468 26.3445 62.468 26.3447 62.468 26.3449C62.468 26.3451 62.468 26.3454 62.468 26.3456C62.468 26.3458 62.468 26.346 62.468 26.3463C62.468 26.3465 62.468 26.3467 62.468 26.3469C62.468 26.3471 62.468 26.3474 62.468 26.3476C62.468 26.3478 62.468 26.348 62.468 26.3482C62.468 26.3484 62.468 26.3487 62.468 26.3489C62.468 26.3491 62.468 26.3493 62.468 26.3495C62.468 26.3497 62.468 26.35 62.468 26.3502C62.468 26.3504 62.468 26.3506 62.468 26.3509C62.468 26.3511 62.468 26.3513 62.468 26.3515C62.468 26.3517 62.468 26.352 62.468 26.3522C62.468 26.3524 62.468 26.3526 62.468 26.3528C62.468 26.3531 62.468 26.3533 62.468 26.3535C62.468 26.3537 62.468 26.3539 62.468 26.3541C62.468 26.3544 62.468 26.3546 62.468 26.3548C62.468 26.355 62.468 26.3552 62.468 26.3555C62.468 26.3557 62.468 26.3559 62.468 26.3561C62.468 26.3563 62.468 26.3566 62.468 26.3568C62.468 26.357 62.468 26.3572 62.468 26.3574C62.468 26.3577 62.468 26.3579 62.468 26.3581C62.468 26.3583 62.468 26.3585 62.468 26.3587C62.468 26.359 62.468 26.3592 62.468 26.3594C62.468 26.3596 62.468 26.3598 62.468 26.3601C62.468 26.3603 62.468 26.3605 62.468 26.3607C62.468 26.3609 62.468 26.3612 62.468 26.3614C62.468 26.3616 62.468 26.3618 62.468 26.362C62.468 26.3622 62.468 26.3625 62.468 26.3627C62.468 26.3629 62.468 26.3631 62.468 26.3633C62.468 26.3636 62.468 26.3638 62.468 26.364C62.468 26.3642 62.468 26.3644 62.468 26.3646C62.468 26.3649 62.468 26.3651 62.468 26.3653C62.468 26.3655 62.468 26.3657 62.468 26.366C62.468 26.3662 62.468 26.3664 62.468 26.3666C62.468 26.3668 62.468 26.3671 62.468 26.3673C62.468 26.3675 62.468 26.3677 62.468 26.3679C62.468 26.3681 62.468 26.3684 62.468 26.3686C62.468 26.3688 62.468 26.369 62.468 26.3692C62.468 26.3695 62.468 26.3697 62.468 26.3699C62.468 26.3701 62.468 26.3703 62.468 26.3706C62.468 26.3708 62.468 26.371 62.468 26.3712C62.468 26.3714 62.468 26.3716 62.468 26.3719C62.468 26.3721 62.468 26.3723 62.468 26.3725C62.468 26.3727 62.468 26.373 62.468 26.3732C62.468 26.3734 62.468 26.3736 62.468 26.3738C62.468 26.374 62.468 26.3743 62.468 26.3745C62.468 26.3747 62.468 26.3749 62.468 26.3751C62.468 26.3754 62.468 26.3756 62.468 26.3758C62.468 26.376 62.468 26.3762 62.468 26.3765C62.468 26.3767 62.468 26.3769 62.468 26.3771C62.468 26.3773 62.468 26.3775 62.468 26.3778C62.468 26.378 62.468 26.3782 62.468 26.3784C62.468 26.3786 62.468 26.3789 62.468 26.3791C62.468 26.3793 62.468 26.3795 62.468 26.3797C62.468 26.3799 62.468 26.3802 62.468 26.3804C62.468 26.3806 62.468 26.3808 62.468 26.381C62.468 26.3813 62.468 26.3815 62.468 26.3817C62.468 26.3819 62.468 26.3821 62.468 26.3824C62.468 26.3826 62.468 26.3828 62.468 26.383C62.468 26.3832 62.468 26.3834 62.468 26.3837C62.468 26.3839 62.468 26.3841 62.468 26.3843C62.468 26.3845 62.468 26.3848 62.468 26.385C62.468 26.3852 62.468 26.3854 62.468 26.3856C62.468 26.3859 62.468 26.3861 62.468 26.3863C62.468 26.3865 62.468 26.3867 62.468 26.3869C62.468 26.3872 62.468 26.3874 62.468 26.3876C62.468 26.3878 62.468 26.388 62.468 26.3883C62.468 26.3885 62.468 26.3887 62.468 26.3889C62.468 26.3891 62.468 26.3894 62.468 26.3896C62.468 26.3898 62.468 26.39 62.468 26.3902C62.468 26.3904 62.468 26.3907 62.468 26.3909C62.468 26.3911 62.468 26.3913 62.468 26.3915C62.468 26.3918 62.468 26.392 62.468 26.3922C62.468 26.3924 62.468 26.3926 62.468 26.3929C62.468 26.3931 62.468 26.3933 62.468 26.3935C62.468 26.3937 62.468 26.394 62.468 26.3942C62.468 26.3944 62.468 26.3946 62.468 26.3948C62.468 26.3951 62.468 26.3953 62.468 26.3955C62.468 26.3957 62.468 26.3959 62.468 26.3962C62.468 26.3964 62.468 26.3966 62.468 26.3968C62.468 26.397 62.468 26.3973 62.468 26.3975C62.468 26.3977 62.468 26.3979 62.468 26.3981C62.468 26.3983 62.468 26.3986 62.468 26.3988C62.468 26.399 62.468 26.3992 62.468 26.3994C62.468 26.3997 62.468 26.3999 62.468 26.4001C62.468 26.4003 62.468 26.4005 62.468 26.4008C62.468 26.401 62.468 26.4012 62.468 26.4014C62.468 26.4016 62.468 26.4019 62.468 26.4021C62.468 26.4023 62.468 26.4025 62.468 26.4027C62.468 26.4029 62.468 26.4032 62.468 26.4034C62.468 26.4036 62.468 26.4038 62.468 26.404C62.468 26.4043 62.468 26.4045 62.468 26.4047C62.468 26.4049 62.468 26.4051 62.468 26.4054C62.468 26.4056 62.468 26.4058 62.468 26.406C62.468 26.4062 62.468 26.4065 62.468 26.4067C62.468 26.4069 62.468 26.4071 62.468 26.4073C62.468 26.4076 62.468 26.4078 62.468 26.408C62.468 26.4082 62.468 26.4084 62.468 26.4087C62.468 26.4089 62.468 26.4091 62.468 26.4093C62.468 26.4095 62.468 26.4097 62.468 26.41C62.468 26.4102 62.468 26.4104 62.468 26.4106C62.468 26.4108 62.468 26.4111 62.468 26.4113C62.468 26.4115 62.468 26.4117 62.468 26.4119C62.468 26.4122 62.468 26.4124 62.468 26.4126C62.468 26.4128 62.468 26.413 62.468 26.4133C62.468 26.4135 62.468 26.4137 62.468 26.4139C62.468 26.4141 62.468 26.4144 62.468 26.4146C62.468 26.4148 62.468 26.415 62.468 26.4152C62.468 26.4155 62.468 26.4157 62.468 26.4159C62.468 26.4161 62.468 26.4163 62.468 26.4166C62.468 26.4168 62.468 26.417 62.468 26.4172C62.468 26.4174 62.468 26.4177 62.468 26.4179C62.468 26.4181 62.468 26.4183 62.468 26.4185C62.468 26.4188 62.468 26.419 62.468 26.4192C62.468 26.4194 62.468 26.4197 62.468 26.4199C62.468 26.4201 62.468 26.4203 62.468 26.4205C62.468 26.4208 62.468 26.421 62.468 26.4212C62.468 26.4214 62.468 26.4216 62.468 26.4219C62.468 26.4221 62.468 26.4223 62.468 26.4225C62.468 26.4227 62.468 26.423 62.468 26.4232C62.468 26.4234 62.468 26.4236 62.468 26.4238C62.468 26.4241 62.468 26.4243 62.468 26.4245C62.468 26.4247 62.468 26.4249 62.468 26.4252C62.468 26.4254 62.468 26.4256 62.468 26.4258C62.468 26.4261 62.468 26.4263 62.468 26.4265C62.468 26.4267 62.468 26.4269 62.468 26.4272C62.468 26.4274 62.468 26.4276 62.468 26.4278C62.468 26.428 62.468 26.4283 62.468 26.4285C62.468 26.4287 62.468 26.4289 62.468 26.4292C62.468 26.4294 62.468 26.4296 62.468 26.4298C62.468 26.43 62.468 26.4303 62.468 26.4305C62.468 26.4307 62.468 26.4309 62.468 26.4311C62.468 26.4314 62.468 26.4316 62.468 26.4318C62.468 26.432 62.468 26.4322 62.468 26.4325C62.468 26.4327 62.468 26.4329 62.468 26.4331C62.468 26.4333 62.468 26.4336 62.468 26.4338C62.468 26.434 62.468 26.4342 62.468 26.4344C62.468 26.4347 62.468 26.4349 62.468 26.4351C62.468 26.4353 62.468 26.4356 62.468 26.4358C62.468 26.436 62.468 26.4362 62.468 26.4364C62.468 26.4367 62.468 26.4369 62.468 26.4371C62.468 26.4373 62.468 26.4376 62.468 26.4378C62.468 26.438 62.468 26.4382 62.468 26.4384C62.468 26.4387 62.468 26.4389 62.468 26.4391C62.468 26.4393 62.468 26.4396 62.468 26.4398C62.468 26.44 62.468 26.4402 62.468 26.4404C62.468 26.4407 62.468 26.4409 62.468 26.4411C62.468 26.4413 62.468 26.4416 62.468 26.4418C62.468 26.442 62.468 26.4422 62.468 26.4424C62.468 26.4427 62.468 26.4429 62.468 26.4431C62.468 26.4433 62.468 26.4435 62.468 26.4438C62.468 26.444 62.468 26.4442 62.468 26.4444C62.468 26.4447 62.468 26.4449 62.468 26.4451C62.468 26.4453 62.468 26.4455 62.468 26.4458C62.468 26.446 62.468 26.4462 62.468 26.4464C62.468 26.4467 62.468 26.4469 62.468 26.4471C62.468 26.4473 62.468 26.4476 62.468 26.4478C62.468 26.448 62.468 26.4482 62.468 26.4485C62.468 26.4487 62.468 26.4489 62.468 26.4491C62.468 26.4493 62.468 26.4496 62.468 26.4498C62.468 26.45 62.468 26.4502 62.468 26.4504C62.468 26.4507 62.468 26.4509 62.468 26.4511C62.468 26.4513 62.468 26.4516 62.468 26.4518C62.468 26.452 62.468 26.4522 62.468 26.4525C62.468 26.4527 62.468 26.4529 62.468 26.4531C62.468 26.4534 62.468 26.4536 62.468 26.4538C62.468 26.454 62.468 26.4542 62.468 26.4545C62.468 26.4547 62.468 26.4549 62.468 26.4551C62.468 26.4554 62.468 26.4556 62.468 26.4558C62.468 26.456 62.468 26.4563 62.468 26.4565C62.468 26.4567 62.468 26.4569 62.468 26.4571C62.468 26.4574 62.468 26.4576 62.468 26.4578C62.468 26.458 62.468 26.4583 62.468 26.4585C62.468 26.4587 62.468 26.4589 62.468 26.4592C62.468 26.4594 62.468 26.4596 62.468 26.4598C62.468 26.4601 62.468 26.4603 62.468 26.4605C62.468 26.4607 62.468 26.461 62.468 26.4612C62.468 26.4614 62.468 26.4616 62.468 26.4618C62.468 26.4621 62.468 26.4623 62.468 26.4625C62.468 26.4627 62.468 26.463 62.468 26.4632C62.468 26.4634 62.468 26.4636 62.468 26.4639C62.468 26.4641 62.468 26.4643 62.468 26.4646C62.468 26.4648 62.468 26.465 62.468 26.4652C62.468 26.4655 62.468 26.4657 62.468 26.4659C62.468 26.4661 62.468 26.4663 62.468 26.4666C62.468 26.4668 62.468 26.467 62.468 26.4672C62.468 26.4675 62.468 26.4677 62.468 26.4679C62.468 26.4681 62.468 26.4684 62.468 26.4686C62.468 26.4688 62.468 26.4691 62.468 26.4693C62.468 26.4695 62.468 26.4697 62.468 26.47C62.468 26.4702 62.468 26.4704 62.468 26.4706C62.468 26.4708 62.468 26.4711 62.468 26.4713C62.468 26.4715 62.468 26.4717 62.468 26.472C62.468 26.4722 62.468 26.4724 62.468 26.4727C62.468 26.4729 62.468 26.4731 62.468 26.4733C62.468 26.4736 62.468 26.4738 62.468 26.474C62.468 26.4742 62.468 26.4745 62.468 26.4747C62.468 26.4749 62.468 26.4751 62.468 26.4754C62.468 26.4756 62.468 26.4758 62.468 26.476C62.468 26.4763 62.468 26.4765 62.468 26.4767C62.468 26.477 62.468 26.4772 62.468 26.4774C62.468 26.4776 62.468 26.4779 62.468 26.4781C62.468 26.4783 62.468 26.4785 62.468 26.4788C62.468 26.479 62.468 26.4792 62.468 26.4794C62.468 26.4797 62.468 26.4799 62.468 26.4801C62.468 26.4804 62.468 26.4806 62.468 26.4808C62.468 26.481 62.468 26.4813 62.468 26.4815C62.468 26.4817 62.468 26.4819 62.468 26.4822C62.468 26.4824 62.468 26.4826 62.468 26.4828C62.468 26.4831 62.468 26.4833 62.468 26.4835C62.468 26.4838 62.468 26.484 62.468 26.4842C62.468 26.4844 62.468 26.4847 62.468 26.4849C62.468 26.4851 62.468 26.4853 62.468 26.4856C62.468 26.4858 62.468 26.486 62.468 26.4863C62.468 26.4865 62.468 26.4867 62.468 26.4869C62.468 26.4872 62.468 26.4874 62.468 26.4876C62.468 26.4878 62.468 26.4881 62.468 26.4883C62.468 26.4885 62.468 26.4888 62.468 26.489C62.468 26.4892 62.468 26.4895 62.468 26.4897C62.468 26.4899 62.468 26.4901 62.468 26.4904C62.468 26.4906 62.468 26.4908 62.468 26.491C62.468 26.4913 62.468 26.4915 62.468 26.4917C62.468 26.492 62.468 26.4922 62.468 26.4924C62.468 26.4927 62.468 26.4929 62.468 26.4931C62.468 26.4933 62.468 26.4936 62.468 26.4938C62.468 26.494 62.468 26.4942 62.468 26.4945C62.468 26.4947 62.468 26.4949 62.468 26.4952C62.468 26.4954 62.468 26.4956 62.468 26.4959C62.468 26.4961 62.468 26.4963 62.468 26.4965C62.468 26.4968 62.468 26.497 62.468 26.4972C62.468 26.4975 62.468 26.4977 62.468 26.4979C62.468 26.4981 62.468 26.4984 62.468 26.4986C62.468 26.4988 62.468 26.4991 62.468 26.4993C62.468 26.4995 62.468 26.4998 62.468 26.5C62.468 26.5002 62.468 26.5005 62.468 26.5007C62.468 26.5009 62.468 26.5011 62.468 26.5014C62.468 26.5016 62.468 26.5018 62.468 26.5021C62.468 26.5023 62.468 26.5025 62.468 26.5028C62.468 26.503 62.468 26.5032 62.468 26.5034C62.468 26.5037 62.468 26.5039 62.468 26.5041C62.468 26.5044 62.468 26.5046 62.468 26.5048C62.468 26.5051 62.468 26.5053 62.468 26.5055C62.468 26.5057 62.468 26.506 62.468 26.5062C62.468 26.5064 62.468 26.5067 62.468 26.5069C62.468 26.5071 62.468 26.5074 62.468 26.5076C62.468 26.5078 62.468 26.508 62.468 26.5083C62.468 26.5085 62.468 26.5087 62.468 26.509C62.468 26.5092 62.468 26.5094 62.468 26.5097C62.468 26.5099 62.468 26.5101 62.468 26.5104C62.468 26.5106 62.468 26.5108 62.468 26.5111C62.468 26.5113 62.468 26.5115 62.468 26.5118C62.468 26.512 62.468 26.5122 62.468 26.5125C62.468 26.5127 62.468 26.5129 62.468 26.5132C62.468 26.5134 62.468 26.5136 62.468 26.5138C62.468 26.5141 62.468 26.5143 62.468 26.5145C62.468 26.5148 62.468 26.515 62.468 26.5153C62.468 26.5155 62.468 26.5157 62.468 26.5159C62.468 26.5162 62.468 26.5164 62.468 26.5166C62.468 26.5169 62.468 26.5171 62.468 26.5173C62.468 26.5176 62.468 26.5178 62.468 26.518C62.468 26.5183 62.468 26.5185 62.468 26.5187C62.468 26.519 62.468 26.5192 62.468 26.5194C62.468 26.5197 62.468 26.5199 62.468 26.5201C62.468 26.5204 62.468 26.5206 62.468 26.5208C62.468 26.5211 62.468 26.5213 62.468 26.5215C62.468 26.5218 62.468 26.522 62.468 26.5222C62.468 26.5225 62.468 26.5227 62.468 26.5229C62.468 26.5232 62.468 26.5234 62.468 26.5236C62.468 26.5239 62.468 26.5241 62.468 26.5244C62.468 26.5246 62.468 26.5248 62.468 26.525C62.468 26.5253 62.468 26.5255 62.468 26.5258C62.468 26.526 62.468 26.5262 62.468 26.5265C62.468 26.5267 62.468 26.5269 62.468 26.5272C62.468 26.5274 62.468 26.5276 62.468 26.5279C62.468 26.5281 62.468 26.5283 62.468 26.5286C62.468 26.5288 62.468 26.529 62.468 26.5293C62.468 26.5295 62.468 26.5297 62.468 26.53C62.468 26.5302 62.468 26.5305 62.468 26.5307C62.468 26.5309 62.468 26.5312 62.468 26.5314C62.468 26.5316 62.468 26.5319 62.468 26.5321C62.468 26.5323 62.468 26.5326 62.468 26.5328C62.468 26.533 62.468 26.5333 62.468 26.5335C62.468 26.5338 62.468 26.534 62.468 26.5342C62.468 26.5345 62.468 26.5347 62.468 26.5349C62.468 26.5352 62.468 26.5354 62.468 26.5357C62.468 26.5359 62.468 26.5361 62.468 26.5364C62.468 26.5366 62.468 26.5368 62.468 26.5371C62.468 26.5373 62.468 26.5375 62.468 26.5378C62.468 26.538 62.468 26.5383 62.468 26.5385C62.468 26.5387 62.468 26.539 62.468 26.5392C62.468 26.5394 62.468 26.5397 62.468 26.5399C62.468 26.5402 62.468 26.5404 62.468 26.5406C62.468 26.5409 62.468 26.5411 62.468 26.5414C62.468 26.5416 62.468 26.5418 62.468 26.5421C62.468 26.5423 62.468 26.5425 62.468 26.5428C62.468 26.543 62.468 26.5432 62.468 26.5435C62.468 26.5437 62.468 26.544 62.468 26.5442C62.468 26.5444 62.468 26.5447 62.468 26.5449H63.6896ZM63.6896 26.1988C63.6896 24.6884 63.4247 23.4101 62.8382 22.4025C62.2426 21.3795 61.3426 20.6825 60.1723 20.3039L59.7963 21.4661C60.7027 21.7594 61.3497 22.2738 61.7825 23.017C62.2239 23.7755 62.468 24.8182 62.468 26.1988H63.6896ZM60.463 21.2641L63.5576 17.3552L62.5999 16.5969L59.5053 20.5059L60.463 21.2641ZM63.0788 16.3653H60.7171V17.5868H63.0788V16.3653ZM60.2358 16.6001L57.0394 20.6923L58.002 21.4442L61.1984 17.352L60.2358 16.6001ZM58.1315 21.0683V12.0287H56.9099V21.0683H58.1315ZM57.5207 11.418H55.5866V12.6395H57.5207V11.418ZM54.9758 12.0287V26.5449H56.1974V12.0287H54.9758ZM66.7616 16.9761H67.3724V16.3653H66.7616V16.9761ZM64.8071 16.9761V16.3653H64.1963V16.9761H64.8071ZM72.5233 25.2826L72.0412 24.9077L72.0401 24.9089L72.0391 24.9102L72.5233 25.2826ZM73.2766 16.9761H73.8873V16.3653H73.2766V16.9761ZM71.3221 16.9761V16.3653H70.7113V16.9761H71.3221ZM66.7616 16.3653H64.8071V17.5868H66.7616V16.3653ZM64.1963 16.9761V22.2491H65.4179V16.9761H64.1963ZM64.1963 22.2491C64.1963 23.8467 64.5597 25.1595 65.4083 26.0725C66.2648 26.9943 67.5135 27.4 69.0418 27.4V26.1784C67.7199 26.1784 66.8514 25.8309 66.3031 25.241C65.7467 24.6423 65.4179 23.685 65.4179 22.2491H64.1963ZM69.0418 27.4C70.7253 27.4 72.0483 26.9019 73.0074 25.655L72.0391 24.9102C71.3695 25.7807 70.4531 26.1784 69.0418 26.1784V27.4ZM73.0054 25.6576C73.858 24.5616 73.8873 23.4293 73.8873 22.2491H72.6658C72.6658 23.4306 72.6139 24.1714 72.0412 24.9077L73.0054 25.6576ZM73.8873 22.2491V16.9761H72.6658V22.2491H73.8873ZM73.2766 16.3653H71.3221V17.5868H73.2766V16.3653ZM70.7113 16.9761V22.2084H71.9328V16.9761H70.7113ZM70.7113 22.2084C70.7113 22.9995 70.5264 23.5008 70.2683 23.7978C70.0225 24.0805 69.6349 24.2647 69.0215 24.2647V25.4862C69.8945 25.4862 70.6571 25.2123 71.1901 24.5992C71.7107 24.0004 71.9328 23.1682 71.9328 22.2084H70.7113ZM69.0215 24.2647C68.4213 24.2647 68.0454 24.0825 67.8068 23.8023C67.5538 23.5056 67.3724 23.0028 67.3724 22.2084H66.1508C66.1508 23.1648 66.3664 23.9956 66.877 24.5947C67.4017 25.2103 68.1558 25.4862 69.0215 25.4862V24.2647ZM67.3724 22.2084V16.9761H66.1508V22.2084H67.3724ZM75.0932 18.6659H74.4824V19.2767H75.0932V18.6659ZM76.0705 18.6659H76.6812V18.0551H76.0705V18.6659ZM80.2645 26.5449L80.2553 27.1556L80.8753 27.165V26.5449H80.2645ZM80.2645 24.5904H80.8753V24.0363L80.3237 23.9825L80.2645 24.5904ZM77.9842 18.6659V18.0551H77.3735V18.6659H77.9842ZM80.1423 18.6659V19.2767H80.7531V18.6659H80.1423ZM80.1423 16.9761H80.7531V16.3653H80.1423V16.9761ZM77.9842 16.9761H77.3735V17.5868H77.9842V16.9761ZM77.9842 14.7162H78.595V14.1054H77.9842V14.7162ZM76.0705 14.7162V14.1054H75.4597V14.7162H76.0705ZM76.0705 16.9761V17.5868H76.6812V16.9761H76.0705ZM75.0932 16.9761V16.3653H74.4824V16.9761H75.0932ZM75.0932 19.2767H76.0705V18.0551H75.0932V19.2767ZM75.4597 18.6659V22.2491H76.6812V18.6659H75.4597ZM75.4597 22.2491C75.4597 23.7211 75.8622 24.9572 76.7148 25.8313C77.5685 26.7063 78.7903 27.1336 80.2553 27.1556L80.2736 25.9342C79.0309 25.9155 78.1557 25.559 77.5893 24.9783C77.0219 24.3967 76.6812 23.5053 76.6812 22.2491H75.4597ZM80.8753 26.5449V24.5904H79.6537V26.5449H80.8753ZM80.3237 23.9825C79.5837 23.9103 79.2044 23.6944 78.9837 23.4054C78.7447 23.0922 78.595 22.5702 78.595 21.679H77.3735C77.3735 22.6609 77.5292 23.5132 78.0127 24.1467C78.515 24.8044 79.2756 25.1076 80.2052 25.1983L80.3237 23.9825ZM78.595 21.679V18.6659H77.3735V21.679H78.595ZM77.9842 19.2767H80.1423V18.0551H77.9842V19.2767ZM80.7531 18.6659V16.9761H79.5315V18.6659H80.7531ZM80.1423 16.3653H77.9842V17.5868H80.1423V16.3653ZM78.595 16.9761V14.7162H77.3735V16.9761H78.595ZM77.9842 14.1054H76.0705V15.327H77.9842V14.1054ZM75.4597 14.7162V16.9761H76.6812V14.7162H75.4597ZM76.0705 16.3653H75.0932V17.5868H76.0705V16.3653ZM74.4824 16.9761V18.6659H75.704V16.9761H74.4824Z" fill="#ED2590"/>
</svg>
